<?xml version="1.0" standalone="no"?>
<!DOCTYPE svg PUBLIC "-//W3C//DTD SVG 20010904//EN"
 "http://www.w3.org/TR/2001/REC-SVG-20010904/DTD/svg10.dtd">
<svg version="1.0" xmlns="http://www.w3.org/2000/svg"
 width="300.000000pt" height="300.000000pt" viewBox="0 0 300.000000 300.000000"
 preserveAspectRatio="xMidYMid meet">
<metadata>
Created by potrace 1.10, written by Peter Selinger 2001-2011
</metadata>
<g transform="translate(0.000000,300.000000) scale(0.100000,-0.100000)"
fill="#000000" stroke="none">
<path d="M1291 2941 c214 -76 424 -268 532 -486 66 -135 82 -197 82 -330 0
-157 -28 -244 -116 -362 -38 -51 -151 -153 -169 -153 -5 0 -2 16 6 36 22 52
29 190 15 265 -15 73 -51 159 -88 207 l-26 35 38 -7 c46 -9 111 -40 142 -69
76 -69 -23 91 -103 169 -57 55 -173 118 -236 129 -21 4 -38 11 -38 15 0 12
141 80 169 80 40 1 6 16 -54 25 -92 13 -197 7 -270 -16 -82 -25 -145 -55 -145
-69 0 -15 23 -12 82 9 98 36 218 58 240 45 5 -3 -5 -21 -22 -41 -29 -33 -30
-36 -15 -53 9 -10 44 -28 78 -40 72 -27 129 -60 175 -103 39 -38 40 -47 4 -47
-16 0 -37 -9 -47 -20 -18 -20 -17 -22 23 -103 22 -45 46 -102 52 -126 14 -55
14 -192 -1 -261 -26 -122 69 -101 195 42 56 64 123 194 137 268 11 60 14 215
3 264 -47 234 -189 447 -408 611 -54 41 -73 61 -64 66 13 9 319 5 538 -7 311
-15 570 -84 752 -197 40 -25 82 -55 92 -66 20 -23 14 -41 -15 -41 -10 0 -37
-16 -58 -35 -29 -27 -41 -47 -46 -78 -4 -23 -10 -46 -12 -50 -3 -5 -26 11 -52
36 -134 129 -297 234 -420 271 -92 27 -78 5 27 -44 55 -27 142 -76 193 -111
103 -71 255 -215 318 -302 42 -57 71 -74 36 -21 -49 75 -71 217 -40 261 23 33
83 48 131 33 22 -7 50 -19 62 -27 37 -23 35 -11 -9 43 -149 180 -375 286 -734
345 -114 19 -181 22 -560 25 l-430 5 56 -20z"/>
<path d="M1137 2792 c-58 -116 -143 -208 -269 -292 -74 -49 -85 -66 -37 -56
36 7 106 55 197 134 34 30 62 49 62 43 0 -11 -31 -77 -73 -155 -20 -37 -12
-53 15 -30 40 37 107 195 124 292 8 51 14 98 11 105 -2 6 -15 -12 -30 -41z"/>
<path d="M856 2795 c-46 -161 -260 -437 -398 -515 -33 -18 -58 -39 -59 -48 -3
-83 -31 -153 -75 -191 -45 -40 -80 -49 -115 -28 l-28 15 -15 -46 c-18 -52 -21
-131 -6 -181 5 -18 24 -56 42 -84 l33 -51 7 41 c21 122 114 182 177 114 l27
-29 0 50 c-1 42 3 53 27 74 29 25 101 49 123 40 27 -10 -33 -140 -91 -198 -50
-50 -97 -65 -130 -44 -32 21 -33 4 -4 -43 41 -68 115 -111 203 -118 l61 -5
-35 24 c-52 35 -52 72 -1 129 83 95 241 131 355 81 27 -12 51 -20 54 -17 3 2
-7 20 -21 39 -29 37 -98 76 -138 76 -22 1 -20 4 24 45 47 43 120 75 171 75 35
0 94 -20 111 -37 26 -26 28 -7 3 27 -39 54 -95 80 -169 79 -35 0 -73 -4 -84
-8 -16 -7 -12 -10 24 -17 l44 -9 -59 -35 c-60 -36 -109 -93 -99 -117 3 -7 8
-20 11 -28 5 -11 -1 -15 -23 -15 -38 0 -118 -27 -163 -55 -53 -33 -99 -91
-112 -140 -11 -41 -13 -42 -37 -32 -30 13 -61 37 -61 48 0 4 12 12 28 17 69
25 172 173 172 248 0 84 -110 85 -192 0 -23 -24 -44 -36 -62 -36 -43 0 -94
-29 -124 -69 -14 -20 -28 -38 -30 -41 -2 -3 -10 4 -18 14 -18 25 -19 149 -1
163 6 6 31 13 55 16 82 10 151 90 170 197 6 34 17 59 28 65 61 35 180 144 248
229 77 94 99 108 78 47 -14 -40 1 -61 22 -30 37 57 71 220 64 304 l-4 40 -8
-30z"/>
<path d="M2166 2719 c10 -11 61 -50 114 -86 268 -186 442 -378 555 -616 44
-92 44 -112 1 -84 -12 8 -41 21 -63 27 -34 10 -45 10 -74 -5 -19 -10 -46 -32
-61 -49 l-26 -30 -51 108 c-28 60 -75 145 -105 190 -105 157 -257 312 -323
328 -14 4 20 -36 90 -106 62 -61 139 -148 170 -193 100 -141 182 -321 223
-488 6 -24 9 -15 15 47 11 123 56 178 133 164 46 -9 134 -87 173 -153 29 -50
36 -54 27 -15 -32 147 -108 320 -201 460 -120 180 -371 405 -560 501 -53 26
-61 27 -37 0z"/>
<path d="M2115 2450 c8 -16 35 -53 58 -82 194 -239 316 -538 317 -775 0 -118
-2 -120 -64 -73 -108 82 -217 106 -336 76 -82 -21 -140 -49 -265 -129 -120
-78 -237 -142 -325 -181 -36 -16 -78 -34 -95 -42 -16 -7 -60 -24 -98 -38 -112
-42 -288 -126 -318 -152 -8 -8 -19 -14 -23 -14 -16 0 -117 -83 -159 -131 -162
-185 -49 -423 193 -407 161 11 300 108 551 384 221 243 434 318 628 219 67
-33 144 -119 169 -188 41 -109 25 -259 -40 -366 -29 -48 -105 -139 -148 -176
-64 -55 -103 -96 -97 -102 12 -11 95 48 163 116 130 130 190 267 182 414 -10
187 -132 332 -313 372 -200 45 -389 -54 -635 -331 -182 -205 -319 -295 -458
-302 -90 -5 -148 14 -191 64 -79 89 -58 210 54 313 96 89 230 162 475 261 220
88 343 151 515 262 194 125 320 156 450 107 63 -23 156 -103 175 -149 7 -16
16 -30 20 -30 4 0 14 46 21 102 31 244 -50 525 -226 788 -96 143 -227 282
-180 190z"/>
<path d="M548 2193 c-67 -52 -90 -91 -68 -117 16 -20 72 -20 110 -1 61 32 106
143 64 159 -29 11 -43 6 -106 -41z m96 5 c-18 -61 -76 -108 -131 -108 l-28 0
27 26 c33 34 121 102 131 103 5 1 5 -9 1 -21z"/>
<path d="M996 2139 c-49 -8 -96 -34 -104 -57 -2 -8 14 -5 47 8 170 67 335 -37
335 -210 0 -133 -64 -198 -311 -319 -92 -46 -211 -111 -264 -146 -314 -209
-476 -486 -440 -752 57 -415 630 -596 1031 -325 94 64 200 171 299 302 164
218 276 306 407 317 51 4 67 1 114 -24 36 -18 65 -43 85 -71 28 -41 30 -49 30
-141 0 -93 -2 -101 -39 -177 -30 -60 -58 -98 -118 -157 -44 -44 -82 -77 -85
-74 -5 6 82 185 98 201 22 23 6 26 -28 5 -69 -41 -145 -103 -237 -193 -50 -49
-118 -109 -151 -134 -67 -50 -189 -112 -219 -112 -14 0 -17 -3 -10 -10 6 -6
66 -16 133 -22 202 -19 363 12 516 101 72 41 215 155 215 171 0 5 -24 -2 -52
-15 -29 -14 -73 -27 -98 -30 -72 -10 -79 -15 -47 -31 38 -21 25 -34 -77 -84
-112 -55 -182 -72 -318 -76 -138 -5 -140 -1 -41 66 37 24 118 93 180 152 109
104 144 128 128 91 -17 -38 -17 -70 0 -86 15 -16 19 -15 54 3 56 28 149 135
187 215 88 182 65 336 -64 429 -42 30 -48 31 -140 31 -83 0 -104 -4 -142 -24
-110 -59 -169 -116 -315 -306 -131 -171 -236 -266 -365 -331 -251 -128 -589
-88 -765 90 -124 125 -161 275 -114 458 34 137 98 240 225 365 107 105 239
191 444 292 188 91 262 148 304 233 35 70 36 161 2 235 -31 65 -107 128 -168
138 -24 3 -50 8 -58 9 -8 2 -37 0 -64 -5z"/>
</g>
</svg>
